<svg width="50" height="69" viewBox="0 0 50 69" fill="none" xmlns="http://www.w3.org/2000/svg">
<path d="M19.2967 0.502113C10.5047 1.69851 3.04473 5.96557 0.572377 15.1001C-0.195323 17.9367 0.0629571 20.9799 0.0629571 23.8891C0.0629571 27.5404 -0.0854188 31.2268 0.0733967 34.8748C0.138791 36.3766 0.424001 38.258 2.26934 38.4645C4.09324 38.6683 4.78017 36.9034 4.94887 35.4219C5.33684 32.02 5.00877 28.4105 5.00877 24.9877C5.00877 22.2928 4.69718 19.3677 5.44235 16.748C8.6879 5.33112 20.12 4.88721 29.7759 4.88721C34.0557 4.88721 41.3654 3.78041 44.1016 8.01671C46.2519 11.3455 42.9278 14.6716 39.6294 15.0402C34.255 15.6412 28.5514 15.0743 23.1434 15.1006C18.8081 15.1215 14.5031 16.5459 13.0611 21.1425C11.579 25.8666 13.9975 31.1389 18.7471 32.6819C21.3558 33.5295 24.2881 33.223 26.9902 33.2274C29.7477 33.2318 34.6941 33.6004 34.3198 37.6202C33.917 41.9455 28.3695 41.4671 25.3415 41.4671C18.9092 41.4671 7.45365 39.205 2.63698 44.3944C0.0492217 47.1821 0.0629571 50.534 0.0629571 54.1012C0.0624076 60.7078 1.32689 67.7088 9.40505 68.3317C17.032 68.92 23.9705 60.0031 20.6139 52.5785C19.7654 50.7021 17.1738 50.617 16.3308 52.5351C15.4582 54.5215 16.3017 56.9648 15.6406 59.0429C14.4228 62.8727 9.80785 64.6881 6.78266 61.6664C3.41237 58.2985 3.8476 48.3615 8.85771 46.7696C10.9108 46.117 13.3249 46.4109 15.4499 46.4109C20.6595 46.4109 26.2164 46.9613 31.3864 46.3093C35.8272 45.749 39.4041 42.1801 39.5564 37.6219C39.8339 29.3025 32.2437 28.2858 25.8911 28.2836C23.0593 28.2825 18.2806 28.327 17.9041 24.4362C17.6244 21.5452 20.7887 20.1565 23.1434 20.0543C29.7911 19.767 39.8179 22.1324 45.6661 18.3987C53.2947 13.5285 50.1212 2.39559 41.8276 0.782259C38.7277 0.179114 35.6083 0.00496303 32.466 0.00496303C28.117 0.00496303 23.6122 -0.085102 19.2967 0.502113Z" fill="white"/>
</svg>
